<?xml version="1.0" encoding="UTF-8" standalone="no"?>
<svg
   version="1.1"
   width="500"
   height="500"
   id="svg244"
   sodipodi:docname="500px copy.svg"
   inkscape:version="1.2.1 (9c6d41e4, 2022-07-14)"
   xmlns:inkscape="http://www.inkscape.org/namespaces/inkscape"
   xmlns:sodipodi="http://sodipodi.sourceforge.net/DTD/sodipodi-0.dtd"
   xmlns="http://www.w3.org/2000/svg"
   xmlns:svg="http://www.w3.org/2000/svg">
  <defs
     id="defs248" />
  <sodipodi:namedview
     id="namedview246"
     pagecolor="#ffffff"
     bordercolor="#000000"
     borderopacity="0.25"
     inkscape:showpageshadow="2"
     inkscape:pageopacity="0.0"
     inkscape:pagecheckerboard="0"
     inkscape:deskcolor="#d1d1d1"
     showgrid="false"
     inkscape:zoom="4.7989306"
     inkscape:cx="328.4065"
     inkscape:cy="209.83841"
     inkscape:window-width="1440"
     inkscape:window-height="842"
     inkscape:window-x="0"
     inkscape:window-y="30"
     inkscape:window-maximized="1"
     inkscape:current-layer="g889" />
  <g
     id="g889"
     transform="matrix(1.5972222,0,0,1.5972222,-117.36111,-98.108633)"
     style="stroke-width:0.626087">
    <path
       d="m 0,0 c 62.04,0 124.08,0 188,0 0,9.9 0,19.8 0,30 -14,5 -14,5 -18.5625,6.375 -18.64655,6.203965 -33.68326,19.896998 -42.77344,37.101562 -4.9571,10.49603 -6.5989,21.81946 -2.82031,32.945318 4.28306,9.55007 10.74627,16.0931 20.15625,20.57812 6.28007,2.37134 12.37706,3.89618 19,5 0,10.23 0,20.46 0,31 -7.06443,0.18449 -14.12038,0.34346 -21.1853,0.43945 -2.39873,0.04 -4.79726,0.0945 -7.19532,0.16407 -22.51287,0.6364 -22.51287,0.6364 -29.40063,-4.45508 C 103.8105,157.76766 102.40412,156.38497 101,155 c -13.869606,-7.64808 -29.177289,-9.39847 -44.5,-5.375 -7.106247,2.32762 -13.748177,5.43518 -18.908691,10.94824 -4.518096,3.75445 -9.733841,3.04828 -15.333497,2.91504 -1.685262,-0.0106 -1.685262,-0.0106 -3.404571,-0.0214 -3.576767,-0.0279 -7.15195,-0.0906 -10.728241,-0.15434 -2.4296648,-0.0251 -4.8593543,-0.0479 -7.2890625,-0.0684 C -5.1104715,163.19337 -11.05347,163.0955 -17,163 c 0,-10.23 0,-20.46 0,-31 4.95,-0.99 9.9,-1.98 15,-3 4.658121,-1.87391 8.7691641,-4.30601 13,-7 0.636797,-0.4009 1.273594,-0.8018 1.929688,-1.21484 C 18.319346,116.8616 22.836762,109.58316 24,103 24.894098,95.004209 23.868506,88.550568 19,82 10.560685,74.196908 -2.5648483,73.278592 -13.375,71.625 -29.669801,69.033656 -46.061783,66.326526 -61,59 -61.929414,58.548828 -62.858828,58.097656 -63.816406,57.632812 -78.899701,49.870895 -93.120811,37.460656 -98.9375,21.125 -100.00681,17.756989 -100,15.765047 -100,12 c 25.74,0 51.48,0 78,0 0,-1.32 0,-2.64 0,-4 7.26,0 14.52,0 22,0 C 0,5.36 0,2.72 0,0 Z"
       fill="#122439"
       transform="translate(186,136)"
       id="path134"
       style="stroke-width:0.391985" />
    <path
       d="m 0,0 c 56.76,0 113.52,0 172,0 0,5.28 0,10.56 0,16 -2.01287,0.709629 -2.01287,0.709629 -4.06641,1.433594 -23.94257,8.640946 -44.49992,20.733218 -55.99487,44.604492 -3.62871,7.825562 -5.16605,13.899418 -5.25122,22.524414 -0.029,0.951973 -0.058,1.903945 -0.0879,2.884766 C 106.50581,98.046693 110.37172,106.80104 117,115 c 1.72844,1.6843 3.49032,3.21998 5.38672,4.71094 1.66356,1.32923 3.11969,2.77384 4.61328,4.28906 -14.39838,1.63859 -22.86088,-0.41389 -34.570313,-8.98437 C 82.443883,107.78071 70.186941,104.81474 58,106 46.965631,108.31224 36.405297,114.30524 27.8125,121.5 21.24378,126.15599 11.638536,124.41961 4,124 c 2.7215598,-2.77748 5.4114862,-5.38991 8.5,-7.75 6.895663,-5.86131 10.844709,-15.28046 11.820312,-24.167969 C 24.585745,85.101158 23.45051,80.044424 20,74 19.46375,72.948125 18.9275,71.89625 18.375,70.8125 13.581379,65.135843 6.5452878,62.272644 0,59 0,39.53 0,20.06 0,0 Z"
       fill="#7f8182"
       transform="translate(194,144)"
       id="path136"
       style="stroke-width:0.391985" />
    <path
       d="m 0,0 c 4.62,0 9.24,0 14,0 0,16.17 0,32.34 0,49 -25.901693,0 -54.429024,-7.799855 -75,-24 -0.568477,-0.417656 -1.136953,-0.835313 -1.722656,-1.265625 C -68.307589,19.449261 -72.792845,13.236134 -76,7 c 0,-0.99 0,-1.98 0,-3 22.77,0 45.54,0 69,0 0,6.383333 -0.083773,11.815464 -1,18 2.64,0 5.28,0 8,0 C 0,14.74 0,7.48 0,0 Z"
       fill="#7e8081"
       transform="translate(172,152)"
       id="path138"
       style="stroke-width:0.391985" />
    <path
       d="m 0,0 c 56.43,0 112.86,0 171,0 0,2.31 0,4.62 0,7 C 116.88,7 62.76,7 7,7 6.67,9.31 6.34,11.62 6,14 5.610127,16.416547 5.212689,18.831884 4.8085937,21.246094 4.6990285,21.90207 4.5894632,22.558047 4.4765778,23.233902 4.1309887,25.301898 3.7842647,27.369701 3.4375,29.4375 3.2010964,30.850899 2.9647676,32.26431 2.7285156,33.677734 2.1532077,37.118635 1.5768827,40.559363 1,44 0.67,44 0.34,44 0,44 0,29.48 0,14.96 0,0 Z"
       fill="#f7f7f6"
       transform="translate(195,145)"
       id="path140"
       style="stroke-width:0.391985" />
    <path
       d="m 0,0 c 2.0606332,1.1698253 4.1011563,2.3759759 6.1171875,3.6210938 2.5993433,1.6583078 2.5993433,1.6583078 5.0234375,2.7656249 1.941406,1.0234375 1.941406,1.0234375 4.691406,3.8984373 0.573924,4.392931 0.406091,8.597456 0,13 C 14.807227,22.803047 13.782422,22.320937 12.726563,21.824219 11.36592,21.186124 10.005241,20.548108 8.6445313,19.910156 7.9709961,19.593047 7.2974609,19.275938 6.6035156,18.949219 -10.401263,10.986005 -28.406194,9.8793412 -46.167969,16.285156 c -4.820475,2.040744 -9.426487,4.455984 -14,7 -0.977723,-4.620648 -1.24065,-8.412125 0,-13 3.9418,-4.5598625 9.731931,-7.2554039 15,-9.99999975 0.993867,-0.5465625 1.987735,-1.093125 3.011719,-1.65624995 C -27.110217,-9.2973347 -14.687093,-7.9502266 0,0 Z"
       fill="#494b49"
       transform="translate(281.16797,263.71484)"
       id="path146"
       style="stroke-width:0.391985" />
    <path
       d="m 0,0 c 12.54,0 25.08,0 38,0 0,4.95 0,9.9 0,15 C 25.46,15 12.92,15 0,15 0,10.05 0,5.1 0,0 Z"
       fill="#7a7c7e"
       transform="translate(176,276)"
       id="path162"
       style="stroke-width:0.391985" />
    <path
       d="m 0,0 c 12.21,0 24.42,0 37,0 0,4.95 0,9.9 0,15 C 24.79,15 12.58,15 0,15 0,10.05 0,5.1 0,0 Z"
       fill="#7d7e80"
       transform="translate(304,276)"
       id="path168"
       style="stroke-width:0.391985" />
    <path
       d="m 0,0 c 22.77,0 45.54,0 69,0 0,3.3 0,6.6 0,10 C 53.363706,10.34194 38.32339,10.314338 23,7 22.072681,6.8018066 21.145361,6.6036133 20.189941,6.3994141 17.26783,5.7642356 14.351707,5.1079707 11.4375,4.4375 10.525649,4.2277856 9.6137988,4.0180713 8.6743164,3.802002 7.8317529,3.5979273 6.9891894,3.3938525 6.1210937,3.1835938 5.3727124,3.003689 4.6243311,2.8237842 3.8532715,2.6384277 2,2 2,2 0,0 Z"
       fill="#f9f9f9"
       transform="translate(96,156)"
       id="path172"
       style="stroke-width:0.391985" />
    <path
       d="M 0,0 C 3.2810651,1.4352373 5.4512559,3.2052508 7.96875,5.7382812 L 10.199219,7.9746094 12.5,10.3125 14.800781,12.615234 C 18.419063,16.262031 21.909807,19.882483 25,24 c -1.56283,3.766039 -3.906348,6.136392 -6.789063,8.984375 l -1.4039,1.395325 C 15.334341,35.841251 13.854826,37.295672 12.375,38.75 11.371937,39.743026 10.369327,40.736511 9.3671875,41.730469 6.9166916,44.158979 4.4600333,46.581147 2,49 -0.62187494,47.95125 -1.7937136,47.350687 -3.25,44.875 L -4,43 -2.7307129,41.746582 C -0.83870591,39.875332 1.0494318,38.000224 2.9375,36.125 L 4.9355469,34.152344 6.8398437,32.257812 8.6013184,30.512207 C 10.099519,29.033475 10.018922,29.085219 11.5,27.260787 l 1.543464,-1.347399 C 11.438041,22.772603 11.144821,21.757698 8.65625,19.214844 L 6.6289062,17.107422 4.5,14.9375 C 3.1102527,13.513328 1.7246344,12.085111 0.34375,10.652344 L -1.5253906,8.7458496 C -3,7 -3,7 -4,4 Z"
       fill="#f6f7f6"
       transform="translate(269,167)"
       id="path178"
       style="stroke-width:0.391985"
       sodipodi:nodetypes="ccccccccccccccccccccccccccc" />
    <path
       d="M 0,0 C 1.98,1.65 3.96,3.3 6,5 1.6628369,10.25025 -2.9856496,14.978905 -7.9257812,19.667969 -10.021086,22.023707 -10.789556,22.915751 -11,26 c 1.4428476,2.136485 1.4428476,2.136485 3.6210938,4.109375 0.7702148,0.754102 1.5404296,1.508203 2.3339843,2.285156 0.8191992,0.777305 1.6383985,1.55461 2.4824219,2.355469 0.815332,0.792773 1.63066406,1.585547 2.47070312,2.402344 C 1.9281039,39.113183 3.9587213,41.061465 6,43 4.95125,45.621875 4.3506869,46.793714 1.875,48.25 1.25625,48.4975 0.6375,48.745 0,49 c -3.3097805,-3.186324 -6.6029004,-6.388628 -9.8815918,-9.606934 -1.1179502,-1.092782 -2.2403442,-2.181038 -3.3671872,-3.264648 -1.617741,-1.557191 -3.218878,-3.129888 -4.817627,-4.706543 -0.508258,-0.482452 -1.016517,-0.964904 -1.540177,-1.461975 -3.358865,-3.356111 -3.358865,-3.356111 -3.508651,-5.973572 1.608991,-2.865751 3.682135,-4.886368 6.02539,-7.189453 0.486898,-0.482653 0.973796,-0.965306 1.475449,-1.462585 1.55205,-1.535298 3.114216,-3.059819 4.676895,-4.58429 C -9.8814764,9.7090278 -8.8261296,8.6673686 -7.7714844,7.625 -5.1887859,5.0753237 -2.5969112,2.535208 0,0 Z"
       fill="#f8f9f8"
       transform="translate(247,167)"
       id="path180"
       style="stroke-width:0.391985" />
    <path
       d="M 0,0 C 1.65,0 3.3,0 5,0 5,0.66 5,1.32 5,2 4.01,2.495 4.01,2.495 3,3 2.67,11.58 2.34,20.16 2,29 c 24.255,0.495 24.255,0.495 49,1 0,0.33 0,0.66 0,1 C 34.17,31 17.34,31 0,31 0,20.77 0,10.54 0,0 Z"
       fill="#243143"
       transform="translate(169,268)"
       id="path198"
       style="stroke-width:0.391985" />
    <path
       d="m 0,0 c 4.62,0 9.24,0 14,0 0,2.64 0,5.28 0,8 C 9.38,8 4.76,8 0,8 0,5.36 0,2.72 0,0 Z"
       fill="#ebecec"
       transform="translate(172,152)"
       id="path200"
       style="stroke-width:0.391985" />
    <path
       d="m 0,0 c 22.77,0 45.54,0 69,0 0,3.3 0,6.6 0,10 -0.33,0 -0.66,0 -1,0 C 68,7.03 68,4.06 68,1 60.228696,1.1075168 52.457484,1.2201533 44.686351,1.3393393 41.077959,1.39452 37.46956,1.4479322 33.861084,1.4973144 c -3.481915,0.047715 -6.963733,0.1000605 -10.445532,0.1556263 -1.975858,0.03032 -3.951787,0.055835 -5.927713,0.081297 -1.201019,0.019945 -2.402037,0.03989 -3.63945,0.06044 -1.059232,0.015544 -2.118464,0.031089 -3.209793,0.047104 C 7.8918466,1.8922307 7.8918466,1.8922307 5,3 2.3125,2.0625 2.3125,2.0625 0,1 0,0.67 0,0.34 0,0 Z"
       fill="#d6d7d9"
       transform="translate(96,156)"
       id="path202"
       style="stroke-width:0.391985" />
    <path
       d="m 0,0 c 4.29,0 8.58,0 13,0 0,0.33 0,0.66 0,1 C 5.7384615,3.2153846 5.7384615,3.2153846 2,2.125 1.34,1.75375 0.68,1.3825 0,1 0,0.67 0,0.34 0,0 Z"
       fill="#dddfdf"
       transform="translate(96,156)"
       id="path238"
       style="stroke-width:0.391985" />
  </g>
</svg>
