<?xml version="1.0" encoding="UTF-8" standalone="no"?>
<svg
   version="1.1"
   width="500"
   height="500"
   id="svg244"
   sodipodi:docname="text_500px.svg"
   inkscape:version="1.2.1 (9c6d41e4, 2022-07-14)"
   xmlns:inkscape="http://www.inkscape.org/namespaces/inkscape"
   xmlns:sodipodi="http://sodipodi.sourceforge.net/DTD/sodipodi-0.dtd"
   xmlns="http://www.w3.org/2000/svg"
   xmlns:svg="http://www.w3.org/2000/svg">
  <defs
     id="defs248" />
  <sodipodi:namedview
     id="namedview246"
     pagecolor="#ffffff"
     bordercolor="#000000"
     borderopacity="0.25"
     inkscape:showpageshadow="2"
     inkscape:pageopacity="0.0"
     inkscape:pagecheckerboard="0"
     inkscape:deskcolor="#d1d1d1"
     showgrid="false"
     inkscape:zoom="0.90305919"
     inkscape:cx="261.33392"
     inkscape:cy="239.18698"
     inkscape:window-width="1440"
     inkscape:window-height="842"
     inkscape:window-x="0"
     inkscape:window-y="30"
     inkscape:window-maximized="1"
     inkscape:current-layer="svg244" />
  <path
     d="M0 0 C62.04 0 124.08 0 188 0 C188 9.9 188 19.8 188 30 C174 35 174 35 169.4375 36.375 C150.79094677 42.57896474 135.75423528 56.27199819 126.6640625 73.4765625 C121.70695753 83.97259226 120.06515838 95.29602189 123.84375 106.421875 C128.12681326 115.97194848 134.59001572 122.51498152 144 127 C150.28006825 129.37134217 156.37705782 130.8961763 163 132 C163 142.23 163 152.46 163 163 C155.9355749 163.18448988 148.87961959 163.34345581 141.81469727 163.43945312 C139.41597054 163.47949379 137.0174367 163.53394505 134.61938477 163.60351562 C112.1065102 164.23992197 112.1065102 164.23992197 105.21875 159.1484375 C103.810502 157.76765981 102.40412118 156.38497407 101 155 C87.13039396 147.35191935 71.8227108 145.60153108 56.5 149.625 C49.39375294 151.95262491 42.75182332 155.0601847 37.59130859 160.57324219 C33.07321345 164.32769452 27.85746787 163.62151724 22.2578125 163.48828125 C20.57254959 163.47766914 20.57254959 163.47766914 18.85324097 163.46684265 C15.27647396 163.43892807 11.70129124 163.37619067 8.125 163.3125 C5.69533516 163.28741353 3.2656457 163.26460098 0.8359375 163.24414062 C-5.11047145 163.19336869 -11.05346952 163.09550102 -17 163 C-17 152.77 -17 142.54 -17 132 C-12.05 131.01 -7.1 130.02 -2 129 C2.65812104 127.1260943 6.76916413 124.69399378 11 122 C11.63679688 121.59910156 12.27359375 121.19820313 12.9296875 120.78515625 C18.31934558 116.86159687 22.83676223 109.5831588 24 103 C24.89409798 95.00420947 23.86850561 88.55056837 19 82 C10.56068518 74.19690847 -2.56484833 73.278592 -13.375 71.625 C-29.66980117 69.0336556 -46.06178317 66.32652632 -61 59 C-61.92941406 58.54882812 -62.85882813 58.09765625 -63.81640625 57.6328125 C-78.8997007 49.87089463 -93.12081066 37.46065557 -98.9375 21.125 C-100.00681147 17.75698904 -100 15.76504695 -100 12 C-74.26 12 -48.52 12 -22 12 C-22 10.68 -22 9.36 -22 8 C-14.74 8 -7.48 8 0 8 C0 5.36 0 2.72 0 0 Z "
     fill="#122439"
     transform="translate(186,136)"
     id="path134" />
  <path
     d="M0 0 C56.76 0 113.52 0 172 0 C172 5.28 172 10.56 172 16 C169.98712891 16.70962891 169.98712891 16.70962891 167.93359375 17.43359375 C143.99101867 26.07453976 123.43366576 38.16681245 111.9387207 62.03808594 C108.31000817 69.86364753 106.77267113 75.93750367 106.6875 84.5625 C106.65849609 85.51447266 106.62949219 86.46644531 106.59960938 87.44726562 C106.50580914 98.04669265 110.37172403 106.80104251 117 115 C118.72843523 116.68430497 120.49031953 118.21997535 122.38671875 119.7109375 C124.05027859 121.04017418 125.50640907 122.48477793 127 124 C112.60162078 125.63859321 104.13912482 123.58611415 92.4296875 115.015625 C82.44388343 107.78071249 70.18694076 104.81473643 58 106 C46.96563133 108.31224171 36.40529739 114.30523711 27.8125 121.5 C21.24378033 126.15598904 11.63853641 124.41961441 4 124 C6.72155976 121.22251778 9.41148621 118.61009073 12.5 116.25 C19.39566321 110.38868627 23.34470918 100.96953951 24.3203125 92.08203125 C24.58574496 85.10115752 23.45050961 80.04442417 20 74 C19.46375 72.948125 18.9275 71.89625 18.375 70.8125 C13.58137877 65.13584328 6.54528782 62.27264391 0 59 C0 39.53 0 20.06 0 0 Z "
     fill="#7F8182"
     transform="translate(194,144)"
     id="path136" />
  <path
     d="M0 0 C4.62 0 9.24 0 14 0 C14 16.17 14 32.34 14 49 C-11.90169274 49 -40.42902418 41.2001447 -61 25 C-61.56847656 24.58234375 -62.13695313 24.1646875 -62.72265625 23.734375 C-68.30758867 19.44926061 -72.79284518 13.23613438 -76 7 C-76 6.01 -76 5.02 -76 4 C-53.23 4 -30.46 4 -7 4 C-7 10.38333296 -7.08377246 15.81546408 -8 22 C-5.36 22 -2.72 22 0 22 C0 14.74 0 7.48 0 0 Z "
     fill="#7E8081"
     transform="translate(172,152)"
     id="path138" />
  <path
     d="M0 0 C56.43 0 112.86 0 171 0 C171 2.31 171 4.62 171 7 C116.88 7 62.76 7 7 7 C6.67 9.31 6.34 11.62 6 14 C5.61012702 16.41654747 5.21268898 18.83188381 4.80859375 21.24609375 C4.69902847 21.90207047 4.5894632 22.55804718 4.47657776 23.23390198 C4.13098874 25.30189768 3.78426473 27.36970115 3.4375 29.4375 C3.20109637 30.85089883 2.96476756 32.26431018 2.72851562 33.67773438 C2.15320773 37.11863455 1.57688271 40.55936345 1 44 C0.67 44 0.34 44 0 44 C0 29.48 0 14.96 0 0 Z "
     fill="#F7F7F6"
     transform="translate(195,145)"
     id="path140" />
  <path
     d="M0 0 C5.35817822 3.88467921 8.44760253 7.43926575 10.5 13.8125 C11.20477454 20.15547087 10.14640264 24.54045656 6.5 29.8125 C1.78141449 35.1838005 -3.99483204 36.79669866 -10.9375 37.25 C-16.10742431 37.12648645 -19.57935772 35.05747604 -23.5 31.8125 C-28.54278759 26.50430253 -30.05378837 21.59681104 -29.87109375 14.375 C-29.02026541 8.49980643 -25.65280038 4.33167317 -21 0.8125 C-14.63094678 -2.77160599 -6.74173274 -2.28737361 0 0 Z "
     fill="#14253B"
     transform="translate(144.5,331.1875)"
     id="path142" />
  <path
     d="M0 0 C4.31650209 2.56393733 8.47984211 5.95719172 10.03515625 10.89453125 C11.29358602 17.37485653 11.22151666 23.45925978 7.453125 29.046875 C3.53747903 33.72389657 -0.58849013 36.53453086 -6.75 37.33203125 C-13.32077566 37.58905139 -18.19124849 36.02774275 -23.296875 31.734375 C-28.07174048 26.03106346 -29.21923419 21.38837525 -29.02734375 14.0234375 C-28.24852912 9.19858591 -25.99382385 6.38159761 -22.546875 3.046875 C-21.721875 2.221875 -20.896875 1.396875 -20.046875 0.546875 C-13.81829151 -2.12251792 -6.4008699 -2.39541757 0 0 Z "
     fill="#13243A"
     transform="translate(302.546875,330.953125)"
     id="path144" />
  <path
     d="M0 0 C2.06063318 1.1698253 4.10115628 2.37597591 6.1171875 3.62109375 C8.71653075 5.27940157 8.71653075 5.27940157 11.140625 6.38671875 C13.08203125 7.41015625 13.08203125 7.41015625 15.83203125 10.28515625 C16.40595505 14.678087 16.23812249 18.88261156 15.83203125 23.28515625 C14.80722656 22.80304688 13.78242188 22.3209375 12.7265625 21.82421875 C11.36591994 21.18612431 10.00524092 20.54810758 8.64453125 19.91015625 C7.97099609 19.59304688 7.29746094 19.2759375 6.60351562 18.94921875 C-10.40126297 10.98600536 -28.4061943 9.87934119 -46.16796875 16.28515625 C-50.98844396 18.32589988 -55.59445633 20.74113997 -60.16796875 23.28515625 C-61.14569219 18.66450772 -61.40861907 14.8730305 -60.16796875 10.28515625 C-56.22616856 5.72529353 -50.43603825 3.02975211 -45.16796875 0.28515625 C-44.17410156 -0.26140625 -43.18023437 -0.80796875 -42.15625 -1.37109375 C-27.11021714 -9.29733465 -14.68709285 -7.95022658 0 0 Z "
     fill="#494B49"
     transform="translate(281.16796875,263.71484375)"
     id="path146" />
  <path
     d="M0 0 C3.135 -0.061875 6.27 -0.12375 9.5 -0.1875 C10.95696289 -0.22846802 10.95696289 -0.22846802 12.44335938 -0.27026367 C19.23394766 -0.33449523 24.94479546 0.35355353 30.27734375 4.97265625 C30.82519531 5.66230469 31.37304688 6.35195313 31.9375 7.0625 C32.50339844 7.75472656 33.06929687 8.44695312 33.65234375 9.16015625 C36.82450782 13.4908498 36.42181532 17.79761105 36 23 C34.30634951 28.73959332 31.92010185 31.62345951 27 35 C21.44339474 37.48970375 16.08518108 37.22917641 10.125 37.125 C6.78375 37.08375 3.4425 37.0425 0 37 C0 24.79 0 12.58 0 0 Z "
     fill="#0B1F36"
     transform="translate(163,330)"
     id="path148" />
  <path
     d="M0 0 C2.990625 -0.061875 5.98125 -0.12375 9.0625 -0.1875 C9.99070557 -0.21481201 10.91891113 -0.24212402 11.87524414 -0.27026367 C18.08681585 -0.33198781 22.71305336 0.48602762 27.77734375 4.359375 C30.0715083 7.10928268 30.99243016 8.9470111 31.5 12.5 C30.95546259 16.31176186 30.09910927 18.77636791 28 22 C25.890625 23.16796875 25.890625 23.16796875 24 24 C24.33773438 24.60328125 24.67546875 25.2065625 25.0234375 25.828125 C25.46945312 26.62734375 25.91546875 27.4265625 26.375 28.25 C26.81585938 29.03890625 27.25671875 29.8278125 27.7109375 30.640625 C28.85747823 32.73914197 29.94649552 34.8536077 31 37 C25.95753452 37.88464307 25.95753452 37.88464307 23 37 C21.26171875 34.80859375 21.26171875 34.80859375 19.625 32.0625 C17.29592796 28.1024719 17.29592796 28.1024719 13.33984375 26.11328125 C10.26899914 25.79725096 10.26899914 25.79725096 6 26 C6 29.63 6 33.26 6 37 C4.02 37 2.04 37 0 37 C0 24.79 0 12.58 0 0 Z "
     fill="#0F2239"
     transform="translate(321,330)"
     id="path150" />
  <path
     d="M0 0 C2.64 0 5.28 0 8 0 C8 12.54 8 25.08 8 38 C1 38 1 38 -1.30078125 36.015625 C-1.96464844 35.10296875 -2.62851563 34.1903125 -3.3125 33.25 C-4.06015625 32.25871094 -4.8078125 31.26742188 -5.578125 30.24609375 C-5.96677734 29.71870605 -6.35542969 29.19131836 -6.75585938 28.64794922 C-8.91923012 25.78241693 -11.24892594 23.05692209 -13.5625 20.3125 C-15.026875 18.559375 -16.49125 16.80625 -18 15 C-18.33 22.59 -18.66 30.18 -19 38 C-21.31 38 -23.62 38 -26 38 C-26 25.79 -26 13.58 -26 1 C-19 1 -19 1 -16.41015625 3.2734375 C-15.63542969 4.29695313 -14.86070312 5.32046875 -14.0625 6.375 C-13.64500488 6.91286133 -13.22750977 7.45072266 -12.79736328 8.00488281 C-11.9388302 9.11285676 -11.08887392 10.22752896 -10.24755859 11.34863281 C-8.34829755 13.86264489 -6.35720284 16.30119012 -4.375 18.75 C-3.26125 20.1525 -2.1475 21.555 -1 23 C-0.67 15.41 -0.34 7.82 0 0 Z "
     fill="#203145"
     transform="translate(247,379)"
     id="path152" />
  <path
     d="M0 0 C2.64 0 5.28 0 8 0 C8.11673963 4.35393904 8.18743418 8.70747211 8.25 13.0625 C8.30027344 14.90618164 8.30027344 14.90618164 8.3515625 16.78710938 C8.42672898 23.75880035 8.31424394 28.39387526 4 34 C-0.96966646 38.5178786 -6.29692222 38.45396086 -12.75390625 38.41796875 C-16.88786582 37.88567793 -18.84059549 36.60031439 -21.73046875 33.703125 C-24.72775147 29.68215495 -25.242733 26.7296981 -25.1953125 21.703125 C-25.18886719 20.49785156 -25.18242187 19.29257812 -25.17578125 18.05078125 C-25.15064453 16.16939453 -25.15064453 16.16939453 -25.125 14.25 C-25.11597656 12.98027344 -25.10695313 11.71054687 -25.09765625 10.40234375 C-25.07409005 7.26803907 -25.04118832 4.13411459 -25 1 C-22.69 1 -20.38 1 -18 1 C-17.98018066 1.73637695 -17.96036133 2.47275391 -17.93994141 3.23144531 C-17.84462172 6.57132056 -17.73497004 9.91057639 -17.625 13.25 C-17.5940625 14.40886719 -17.563125 15.56773437 -17.53125 16.76171875 C-17.49257813 17.87675781 -17.45390625 18.99179687 -17.4140625 20.140625 C-17.3826416 21.16704102 -17.3512207 22.19345703 -17.31884766 23.25097656 C-16.99996849 26.00027167 -16.49715185 27.68942447 -15 30 C-11.87057535 31.56471233 -8.38917777 31.69701958 -5 31 C-2.19431653 28.80910381 -1.11344906 27.6094589 -0.45410156 24.06738281 C-0.42268066 22.4020752 -0.42268066 22.4020752 -0.390625 20.703125 C-0.35839844 19.49785156 -0.32617188 18.29257812 -0.29296875 17.05078125 C-0.27878906 15.79652344 -0.26460938 14.54226563 -0.25 13.25 C-0.20552734 11.34541016 -0.20552734 11.34541016 -0.16015625 9.40234375 C-0.08946049 6.26816515 -0.03675988 3.13473044 0 0 Z "
     fill="#263548"
     transform="translate(289,379)"
     id="path154" />
  <path
     d="M0 0 C5.33739473 1.98844117 8.45333824 4.90667648 11 10 C11.50132057 16.51716745 10.16544927 20.34557832 6.0625 25.375 C1.18369332 27.96375457 -3.60497704 27.84685069 -9 27 C-12.521255 25.35719652 -14.42748493 22.98888967 -16.375 19.625 C-17.53598328 14.74887023 -17.68367912 11.34106288 -15.375 6.8125 C-10.84069695 1.4429306 -7.12158671 -0.89019834 0 0 Z "
     fill="#F6F6F6"
     transform="translate(138,335)"
     id="path156" />
  <path
     d="M0 0 C9.24 0 18.48 0 28 0 C28 1.98 28 3.96 28 6 C21.07 6 14.14 6 7 6 C7 8.97 7 11.94 7 15 C12.94 15 18.88 15 25 15 C25 16.98 25 18.96 25 21 C19.06 21 13.12 21 7 21 C7 24.63 7 28.26 7 32 C13.93 32 20.86 32 28 32 C28 33.65 28 35.3 28 37 C18.76 37 9.52 37 0 37 C0 24.79 0 12.58 0 0 Z "
     fill="#102137"
     transform="translate(401,330)"
     id="path158" />
  <path
     d="M0 0 C1.89563549 1.20260746 3.65427982 2.43382715 5.3671875 3.8828125 C4.7071875 5.2028125 4.0471875 6.5228125 3.3671875 7.8828125 C-0.6328125 7.8828125 -0.6328125 7.8828125 -2.8828125 6.8828125 C-6.51533836 5.561894 -9.85024372 5.13664171 -13.6328125 5.8828125 C-16.65252775 7.63346638 -19.04847441 9.71413631 -20.6328125 12.8828125 C-21.06562914 17.11942152 -21.08139956 20.79675961 -19.4453125 24.7578125 C-16.89119364 27.75229668 -14.70298997 29.65600023 -10.671875 30.09765625 C-7.10634628 30.15730264 -4.10001066 29.74961204 -0.6328125 28.8828125 C-0.6328125 25.2528125 -0.6328125 21.6228125 -0.6328125 17.8828125 C1.3471875 17.8828125 3.3271875 17.8828125 5.3671875 17.8828125 C5.3671875 22.8328125 5.3671875 27.7828125 5.3671875 32.8828125 C-2.77970793 36.55465269 -8.70666777 38.44275833 -17.3828125 35.6953125 C-22.8957525 32.62078827 -26.55929006 28.88511429 -28.6328125 22.8828125 C-29.26105398 17.3129155 -29.42929268 12.56767441 -27.0078125 7.4453125 C-19.76656854 -0.36760861 -10.62064937 -4.50668504 0 0 Z "
     fill="#102238"
     transform="translate(386.6328125,331.1171875)"
     id="path160" />
  <path
     d="M0 0 C12.54 0 25.08 0 38 0 C38 4.95 38 9.9 38 15 C25.46 15 12.92 15 0 15 C0 10.05 0 5.1 0 0 Z "
     fill="#7A7C7E"
     transform="translate(176,276)"
     id="path162" />
  <path
     d="M0 0 C4.93264249 -0.96891192 4.93264249 -0.96891192 8 0 C11.16868598 3.35602384 13.59997847 7.06804984 16 11 C18.56469829 8.56461423 20.49776385 6.30987507 22.25 3.25 C23.78168758 0.99808316 24.40108884 0.12825844 27.09765625 -0.44921875 C29.3125 -0.4375 29.3125 -0.4375 33 0 C31.92044741 1.73152958 30.83617488 3.46011684 29.75 5.1875 C29.14671875 6.15042969 28.5434375 7.11335938 27.921875 8.10546875 C26 11 26 11 23.703125 13.55078125 C21.76093477 15.84436279 21.76093477 15.84436279 22.0078125 18.49609375 C23.20636398 21.52078468 24.77782586 23.57738705 26.875 26.0625 C27.57367188 26.89910156 28.27234375 27.73570312 28.9921875 28.59765625 C29.65476562 29.39042969 30.31734375 30.18320312 31 31 C34 34.72666667 34 34.72666667 34 37 C30.78075236 37.72268825 28.18859157 37.93782105 25 37 C22.72265777 34.35828302 21.15096388 31.67354116 19.5078125 28.6015625 C18.11565464 25.75807685 18.11565464 25.75807685 15 24 C14.72414063 24.56203125 14.44828125 25.1240625 14.1640625 25.703125 C10.03239983 33.85553322 10.03239983 33.85553322 7 37 C3.98630542 37.80762679 2.15150763 37.48902705 -1 37 C0.87455901 31.40722228 4.46010844 27.39453314 8.1015625 22.83984375 C10.37050354 20.01509593 10.37050354 20.01509593 10 16 C9.11129083 14.24143193 9.11129083 14.24143193 7.8125 12.6171875 C7.36132812 12.00746094 6.91015625 11.39773438 6.4453125 10.76953125 C5.96835937 10.14433594 5.49140625 9.51914062 5 8.875 C0 2.23986486 0 2.23986486 0 0 Z "
     fill="#132439"
     transform="translate(303,380)"
     id="path164" />
  <path
     d="M0 0 C16.20535714 -0.80357143 16.20535714 -0.80357143 20.4375 2.875 C23.70096894 6.40261395 24.2991581 9.03647296 24.2109375 13.90625 C23.74329836 18.54800147 21.91762711 21.24623487 18.375 24.15625 C14.45786694 26.29616528 11.44818307 26.46611134 7.125 26.25 C4.77375 26.1675 2.4225 26.085 0 26 C0 17.42 0 8.84 0 0 Z "
     fill="#F8F9F9"
     transform="translate(169,336)"
     id="path166" />
  <path
     d="M0 0 C12.21 0 24.42 0 37 0 C37 4.95 37 9.9 37 15 C24.79 15 12.58 15 0 15 C0 10.05 0 5.1 0 0 Z "
     fill="#7D7E80"
     transform="translate(304,276)"
     id="path168" />
  <path
     d="M0 0 C3.10177393 2.59683399 5.35292965 4.56041975 6.15625 8.6171875 C6.2105953 12.97839788 6.2375512 16.24129387 3.4375 19.75 C-0.23394343 23.08767584 -1.79885352 24.11239577 -6.75 24.5625 C-11.3152799 24.16203685 -13.64955925 22.67537779 -17.0625 19.75 C-19.96758742 16.2638951 -19.64157782 11.99962658 -19.59765625 7.6953125 C-19.19051087 4.20390147 -17.90811409 2.55721252 -15.3125 0.25 C-10.59365629 -3.28913278 -4.89249878 -2.58471634 0 0 Z "
     fill="#F5F5F5"
     transform="translate(300.3125,337.75)"
     id="path170" />
  <path
     d="M0 0 C22.77 0 45.54 0 69 0 C69 3.3 69 6.6 69 10 C53.36370591 10.34193982 38.32339049 10.31433754 23 7 C22.07268066 6.80180664 21.14536133 6.60361328 20.18994141 6.39941406 C17.26783048 5.76423561 14.35170689 5.10797068 11.4375 4.4375 C10.52564941 4.22778564 9.61379883 4.01807129 8.67431641 3.80200195 C7.83175293 3.59792725 6.98918945 3.39385254 6.12109375 3.18359375 C5.3727124 3.00368896 4.62433105 2.82378418 3.85327148 2.63842773 C2 2 2 2 0 0 Z "
     fill="#F9F9F9"
     transform="translate(96,156)"
     id="path172" />
  <path
     d="M0 0 C8.91 0 17.82 0 27 0 C27 1.65 27 3.3 27 5 C19.74 5 12.48 5 5 5 C5 8.63 5 12.26 5 16 C11.27 16 17.54 16 24 16 C24 17.65 24 19.3 24 21 C18.06 21 12.12 21 6 21 C6 24.63 6 28.26 6 32 C12.93 32 19.86 32 27 32 C27 33.65 27 35.3 27 37 C18.09 37 9.18 37 0 37 C0 24.79 0 12.58 0 0 Z "
     fill="#0D2036"
     transform="translate(207,330)"
     id="path174" />
  <path
     d="M0 0 C9.24 0 18.48 0 28 0 C28 1.98 28 3.96 28 6 C21.07 6 14.14 6 7 6 C7 9.63 7 13.26 7 17 C12.94 17 18.88 17 25 17 C25 18.98 25 20.96 25 23 C19.06 23 13.12 23 7 23 C7 27.62 7 32.24 7 37 C4.69 37 2.38 37 0 37 C0 24.79 0 12.58 0 0 Z "
     fill="#122439"
     transform="translate(242,330)"
     id="path176" />
  <path
     d="M0 0 C3.28106505 1.43523734 5.45125586 3.20525079 7.96875 5.73828125 C9.07283203 6.84526367 9.07283203 6.84526367 10.19921875 7.97460938 C11.33810547 9.13186523 11.33810547 9.13186523 12.5 10.3125 C13.25925781 11.07240234 14.01851563 11.83230469 14.80078125 12.61523438 C18.41906292 16.2620314 21.90980734 19.88248265 25 24 C23.43717018 27.76603869 21.0936525 30.13639151 18.2109375 32.984375 C17.74765045 33.44483215 17.2843634 33.90528931 16.80703735 34.37969971 C15.33434102 35.84125078 13.85482597 37.29567168 12.375 38.75 C11.37193678 39.74302611 10.36932743 40.73651089 9.3671875 41.73046875 C6.91669165 44.15897941 4.4600333 46.58114675 2 49 C-0.62187494 47.95125002 -1.79371361 47.35068687 -3.25 44.875 C-3.4975 44.25625 -3.745 43.6375 -4 43 C-3.58113525 42.58637207 -3.16227051 42.17274414 -2.73071289 41.74658203 C-0.83870591 39.87533169 1.04943185 38.00022415 2.9375 36.125 C3.9265332 35.14853516 3.9265332 35.14853516 4.93554688 34.15234375 C5.56396484 33.52714844 6.19238281 32.90195313 6.83984375 32.2578125 C7.42113037 31.6817627 8.00241699 31.10571289 8.60131836 30.51220703 C10.09951936 29.03347525 10.09951936 29.03347525 11 27 C11.66 27 12.32 27 13 27 C12.41577678 23.45986212 11.14482112 21.75769797 8.65625 19.21484375 C7.98722656 18.51939453 7.31820313 17.82394531 6.62890625 17.10742188 C5.92636719 16.39134766 5.22382813 15.67527344 4.5 14.9375 C3.11025268 13.51332774 1.72463445 12.08511114 0.34375 10.65234375 C-0.58147461 9.70862915 -0.58147461 9.70862915 -1.52539062 8.74584961 C-3 7 -3 7 -4 4 C-2.68 2.68 -1.36 1.36 0 0 Z "
     fill="#F6F7F6"
     transform="translate(269,167)"
     id="path178" />
  <path
     d="M0 0 C1.98 1.65 3.96 3.3 6 5 C1.66283693 10.25025003 -2.98564956 14.97890504 -7.92578125 19.66796875 C-10.02108639 22.0237073 -10.78955625 22.91575066 -11 26 C-9.55715237 28.13648487 -9.55715237 28.13648487 -7.37890625 30.109375 C-6.60869141 30.86347656 -5.83847656 31.61757812 -5.04492188 32.39453125 C-4.22572266 33.17183594 -3.40652344 33.94914062 -2.5625 34.75 C-1.74716797 35.54277344 -0.93183594 36.33554688 -0.09179688 37.15234375 C1.92810392 39.11318312 3.95872128 41.0614649 6 43 C4.95125002 45.62187494 4.35068687 46.79371361 1.875 48.25 C1.25625 48.4975 0.6375 48.745 0 49 C-3.30978049 45.81367626 -6.60290041 42.61137229 -9.8815918 39.39306641 C-10.99954232 38.30028398 -12.12193584 37.21202796 -13.2487793 36.12841797 C-14.86652023 34.57122656 -16.46765715 32.99852955 -18.06640625 31.421875 C-18.57466446 30.93942322 -19.08292267 30.45697144 -19.60658264 29.9598999 C-22.96544756 26.60378927 -22.96544756 26.60378927 -23.11523438 23.98632812 C-21.5062431 21.12057659 -19.43309861 19.09995977 -17.08984375 16.796875 C-16.60294571 16.3142218 -16.11604767 15.8315686 -15.61439514 15.33428955 C-14.0623455 13.7989915 -12.50017864 12.27447075 -10.9375 10.75 C-9.88147643 9.7090278 -8.82612962 8.6673686 -7.77148438 7.625 C-5.18878585 5.07532367 -2.59691118 2.53520804 0 0 Z "
     fill="#F8F9F8"
     transform="translate(247,167)"
     id="path180" />
  <path
     d="M0 0 C2.91589936 0.97364806 3.841219 1.71423188 6 4 C6 5.32 6 6.64 6 8 C5.01 8.33 4.02 8.66 3 9 C2.113125 8.525625 1.22625 8.05125 0.3125 7.5625 C-3.67253343 5.68276725 -6.66846368 5.20617263 -11 6 C-14.75212276 8.01502889 -16.63644095 9.45466142 -19 13 C-19.58190144 17.88192638 -19.61701919 22.48830299 -17.75 27.0625 C-15.21710094 29.86678111 -13.10972134 30.87434038 -9.34375 31.30078125 C-7.93609375 31.30658203 -7.93609375 31.30658203 -6.5 31.3125 C-5.5615625 31.32925781 -4.623125 31.34601563 -3.65625 31.36328125 C-0.61744947 30.94768059 0.74062173 30.01958576 3 28 C4.32 28.66 5.64 29.32 7 30 C6.63113441 32.43861138 6.40497341 33.66527708 4.46875 35.265625 C-0.7683159 37.88415795 -5.16330745 38.87287474 -11 38 C-16.77378709 36.0754043 -21.22696073 33.53291324 -24.75 28.5 C-27.56869322 22.86261355 -27.74205337 17.59718678 -26 11.5 C-20.81158401 0.42135329 -10.98553815 -0.90923388 0 0 Z "
     fill="#16273C"
     transform="translate(104,330)"
     id="path182" />
  <path
     d="M0 0 C2.31 0 4.62 0 7 0 C7 10.23 7 20.46 7 31 C13.27 31 19.54 31 26 31 C26 32.98 26 34.96 26 37 C17.42 37 8.84 37 0 37 C0 24.79 0 12.58 0 0 Z "
     fill="#102238"
     transform="translate(172,380)"
     id="path184" />
  <path
     d="M0 0 C7 0 7 0 9.80078125 2.484375 C10.6597873 3.55582341 11.49677759 4.64524209 12.3125 5.75 C12.95541992 6.55824219 12.95541992 6.55824219 13.61132812 7.3828125 C15.74809069 10.11626852 17.6028318 12.81970554 19 16 C17.35 17.65 15.7 19.3 14 21 C12.02 18.69 10.04 16.38 8 14 C7.67 21.59 7.34 29.18 7 37 C4.69 37 2.38 37 0 37 C0 24.79 0 12.58 0 0 Z "
     fill="#0E1F36"
     transform="translate(221,380)"
     id="path186" />
  <path
     d="M0 0 C2.64 0 5.28 0 8 0 C8 12.54 8 25.08 8 38 C5.36 38 2.72 38 0 38 C0 25.46 0 12.92 0 0 Z "
     fill="#2A3A4C"
     transform="translate(204,379)"
     id="path188" />
  <path
     d="M0 0 C2.31 0 4.62 0 7 0 C7.01981934 0.73637695 7.03963867 1.47275391 7.06005859 2.23144531 C7.15537828 5.57132056 7.26502996 8.91057639 7.375 12.25 C7.4059375 13.40886719 7.436875 14.56773437 7.46875 15.76171875 C7.50742187 16.87675781 7.54609375 17.99179687 7.5859375 19.140625 C7.6173584 20.16704102 7.6487793 21.19345703 7.68115234 22.25097656 C8.00344192 25.02967534 8.46644739 26.6780763 10 29 C10.99 29.66 11.98 30.32 13 31 C13 31.66 13 32.32 13 33 C13.99 33 14.98 33 16 33 C16 33.66 16 34.32 16 35 C19.465 34.505 19.465 34.505 23 34 C23.33 34.66 23.66 35.32 24 36 C19.53007756 38.23496122 13.83752094 37.61620803 9 37 C4.60639949 34.75194107 1.85315476 31.54340587 0 27 C-0.22705078 24.06738281 -0.22705078 24.06738281 -0.1953125 20.703125 C-0.18886719 19.49785156 -0.18242187 18.29257812 -0.17578125 17.05078125 C-0.15064453 15.16939453 -0.15064453 15.16939453 -0.125 13.25 C-0.11597656 11.98027344 -0.10695313 10.71054687 -0.09765625 9.40234375 C-0.07409005 6.26803907 -0.04118832 3.13411459 0 0 Z "
     fill="#102036"
     transform="translate(264,380)"
     id="path190" />
  <path
     d="M0 0 C4.03556631 0.52821549 6.17712748 1.59326602 9.1875 4.3125 C10.19876953 5.20388672 10.19876953 5.20388672 11.23046875 6.11328125 C15.1495725 10.29192829 15.38476347 13.92196104 15.24609375 19.46875 C14.73597713 24.7156638 12.93096228 28.44274189 9 31.875 C6 34 6 34 3 35 C2.34 33.68 1.68 32.36 1 31 C1.42152344 30.52949219 1.84304687 30.05898438 2.27734375 29.57421875 C2.82519531 28.95160156 3.37304688 28.32898438 3.9375 27.6875 C4.75541016 26.76517578 4.75541016 26.76517578 5.58984375 25.82421875 C8.1265733 22.54263233 8.38942539 19.14214039 8.359375 15.0703125 C7.71820971 11.3766429 5.64068388 9.57781045 3 7 C-0.16965142 5.41517429 -3.63744541 5.62147177 -7.125 5.4375 C-9.72375 5.293125 -12.3225 5.14875 -15 5 C-15 13.58 -15 22.16 -15 31 C-15.33 31 -15.66 31 -16 31 C-16 22.09 -16 13.18 -16 4 C-11.38 4 -6.76 4 -2 4 C-1.34 2.68 -0.68 1.36 0 0 Z "
     fill="#0C1D30"
     transform="translate(184,331)"
     id="path192" />
  <path
     d="M0 0 C12.05357143 -0.53571429 12.05357143 -0.53571429 15.75 1.625 C18 4 18 4 18.625 7 C17.8546747 10.69756142 16.99557827 11.73150384 14 14 C9.2805118 14.53387876 4.76525513 14.17649093 0 14 C0 9.38 0 4.76 0 0 Z "
     fill="#EBEBEC"
     transform="translate(327,336)"
     id="path194" />
  <path
     d="M0 0 C4.1724106 0.51881113 6.25416821 1.71151274 9.3125 4.5625 C10.00988281 5.20316406 10.70726562 5.84382813 11.42578125 6.50390625 C11.94527344 6.99761719 12.46476562 7.49132812 13 8 C12.01 8.495 12.01 8.495 11 9 C10.34786708 11.02463255 10.34786708 11.02463255 10 13 C9.34 13 8.68 13 8 13 C6.31267723 11.01739574 4.64633943 9.0167658 3 7 C-0.16965142 5.41517429 -3.63744541 5.62147177 -7.125 5.4375 C-9.72375 5.293125 -12.3225 5.14875 -15 5 C-15 13.58 -15 22.16 -15 31 C-15.33 31 -15.66 31 -16 31 C-16 22.09 -16 13.18 -16 4 C-11.38 4 -6.76 4 -2 4 C-1.34 2.68 -0.68 1.36 0 0 Z "
     fill="#394657"
     transform="translate(184,331)"
     id="path196" />
  <path
     d="M0 0 C1.65 0 3.3 0 5 0 C5 0.66 5 1.32 5 2 C4.01 2.495 4.01 2.495 3 3 C2.67 11.58 2.34 20.16 2 29 C26.255 29.495 26.255 29.495 51 30 C51 30.33 51 30.66 51 31 C34.17 31 17.34 31 0 31 C0 20.77 0 10.54 0 0 Z "
     fill="#243143"
     transform="translate(169,268)"
     id="path198" />
  <path
     d="M0 0 C4.62 0 9.24 0 14 0 C14 2.64 14 5.28 14 8 C9.38 8 4.76 8 0 8 C0 5.36 0 2.72 0 0 Z "
     fill="#EBECEC"
     transform="translate(172,152)"
     id="path200" />
  <path
     d="M0 0 C22.77 0 45.54 0 69 0 C69 3.3 69 6.6 69 10 C68.67 10 68.34 10 68 10 C68 7.03 68 4.06 68 1 C60.22869568 1.10751678 52.45748398 1.22015333 44.68635082 1.33933926 C41.0779594 1.39452 37.46955979 1.4479322 33.86108398 1.49731445 C30.37916857 1.54502961 26.89735081 1.59737492 23.41555214 1.65294075 C21.43969447 1.68326037 19.46376498 1.70877575 17.48783875 1.73423767 C16.28682022 1.75418289 15.0858017 1.77412811 13.84838867 1.79467773 C12.78915695 1.81022202 11.72992523 1.8257663 10.63859558 1.84178162 C7.89184665 1.89223068 7.89184665 1.89223068 5 3 C2.3125 2.0625 2.3125 2.0625 0 1 C0 0.67 0 0.34 0 0 Z "
     fill="#D6D7D9"
     transform="translate(96,156)"
     id="path202" />
  <path
     d="M0 0 C6.6 0 13.2 0 20 0 C20 0.99 20 1.98 20 3 C17.95840905 3.0272616 15.91671037 3.04651345 13.875 3.0625 C12.73804688 3.07410156 11.60109375 3.08570313 10.4296875 3.09765625 C7.1870844 3.005327 4.18067388 2.61389906 1 2 C1 3.65 1 5.3 1 7 C0.67 7 0.34 7 0 7 C0 4.69 0 2.38 0 0 Z "
     fill="#1B293C"
     transform="translate(163,330)"
     id="path204" />
  <path
     d="M0 0 C3.33557632 2.9905167 5.15083921 5.93184627 7 10 C4.36 10 1.72 10 -1 10 C-1.66 8.35 -2.32 6.7 -3 5 C-2.01 4.67 -1.02 4.34 0 4 C0 2.68 0 1.36 0 0 Z "
     fill="#17283C"
     transform="translate(345,357)"
     id="path206" />
  <path
     d="M0 0 C0.74886475 0.00523682 1.49772949 0.01047363 2.26928711 0.01586914 C3.07817383 0.0190918 3.88706055 0.02231445 4.72045898 0.02563477 C5.5705957 0.03401367 6.42073242 0.04239258 7.29663086 0.05102539 C8.15063477 0.05553711 9.00463867 0.06004883 9.88452148 0.06469727 C12.00108749 0.07652166 14.11761771 0.0944577 16.23413086 0.11352539 C16.23413086 1.10352539 16.23413086 2.09352539 16.23413086 3.11352539 C10.29413086 3.11352539 4.35413086 3.11352539 -1.76586914 3.11352539 C-1.76586914 6.74352539 -1.76586914 10.37352539 -1.76586914 14.11352539 C-2.09586914 14.11352539 -2.42586914 14.11352539 -2.76586914 14.11352539 C-2.79272852 11.96775903 -2.81220002 9.82189894 -2.82836914 7.67602539 C-2.8399707 6.48106445 -2.85157227 5.28610352 -2.86352539 4.05493164 C-2.73473658 0.1758126 -2.73473658 0.1758126 0 0 Z "
     fill="#3B4859"
     transform="translate(214.765869140625,347.886474609375)"
     id="path208" />
  <path
     d="M0 0 C6.27 0 12.54 0 19 0 C19.33 0.66 19.66 1.32 20 2 C18.08574219 2.07347656 18.08574219 2.07347656 16.1328125 2.1484375 C14.46351928 2.22346191 12.79424954 2.29900988 11.125 2.375 C9.86236328 2.42140625 9.86236328 2.42140625 8.57421875 2.46875 C7.36572266 2.52675781 7.36572266 2.52675781 6.1328125 2.5859375 C5.38918457 2.6173584 4.64555664 2.6487793 3.87939453 2.68115234 C1.75989026 2.85419551 1.75989026 2.85419551 0 5 C0 3.35 0 1.7 0 0 Z "
     fill="#202B3B"
     transform="translate(321,330)"
     id="path210" />
  <path
     d="M0 0 C0.33 0 0.66 0 1 0 C1.13277344 0.69867188 1.26554687 1.39734375 1.40234375 2.1171875 C1.57894531 3.02726562 1.75554687 3.93734375 1.9375 4.875 C2.19853516 6.23238281 2.19853516 6.23238281 2.46484375 7.6171875 C2.89963701 9.99956317 2.89963701 9.99956317 4 12 C3.39421747 14.01927511 2.73080266 16.02253397 2 18 C-0.046875 16.453125 -0.046875 16.453125 -2 14 C-1.953125 10.546875 -1.953125 10.546875 -1.25 6.75 C-1.02828125 5.48671875 -0.8065625 4.2234375 -0.578125 2.921875 C-0.38734375 1.95765625 -0.1965625 0.9934375 0 0 Z "
     fill="#29394B"
     transform="translate(83,346)"
     id="path212" />
  <path
     d="M0 0 C4.62 0 9.24 0 14 0 C13.67 0.99 13.34 1.98 13 3 C9.04 3 5.08 3 1 3 C0.67 2.01 0.34 1.02 0 0 Z "
     fill="#05152E"
     transform="translate(217,346)"
     id="path214" />
  <path
     d="M0 0 C2 2 2 2 2.265625 4.2421875 C2.26046875 5.11101562 2.2553125 5.97984375 2.25 6.875 C2.25515625 7.73867188 2.2603125 8.60234375 2.265625 9.4921875 C1.98890649 12.10473577 1.3185995 13.7500088 0 16 C-1.36538938 13.26922124 -1.13231826 11.04439633 -1.125 8 C-1.12757813 6.9275 -1.13015625 5.855 -1.1328125 4.75 C-1 2 -1 2 0 0 Z "
     fill="#2F3C4D"
     transform="translate(197,341)"
     id="path216" />
  <path
     d="M0 0 C0.33 0.66 0.66 1.32 1 2 C0.319375 3.2065625 0.319375 3.2065625 -0.375 4.4375 C-2.56131206 9.23056874 -2.73104702 13.78787676 -3 19 C-3.66 18.67 -4.32 18.34 -5 18 C-5.69328371 10.48172337 -4.67241975 5.97402239 0 0 Z "
     fill="#3B4554"
     transform="translate(120,335)"
     id="path218" />
  <path
     d="M0 0 C0.8353125 0.556875 0.8353125 0.556875 1.6875 1.125 C0.6975 2.445 -0.2925 3.765 -1.3125 5.125 C-3.6225 4.465 -5.9325 3.805 -8.3125 3.125 C-7.3125 1.125 -7.3125 1.125 -5 -0.125 C-2.3125 -0.875 -2.3125 -0.875 0 0 Z "
     fill="#1A2C42"
     transform="translate(144.3125,331.875)"
     id="path220" />
  <path
     d="M0 0 C0.66 0 1.32 0 2 0 C2 1.32 2 2.64 2 4 C2.99 4.33 3.98 4.66 5 5 C4.34 6.32 3.68 7.64 3 9 C1.35 8.01 -0.3 7.02 -2 6 C-1.34 4.02 -0.68 2.04 0 0 Z "
     fill="#182B42"
     transform="translate(192,352)"
     id="path222" />
  <path
     d="M0 0 C2.97 0 5.94 0 9 0 C9.33 0.66 9.66 1.32 10 2 C6.21812119 3.83691257 4.05431692 4.15837626 0 3 C0 2.01 0 1.02 0 0 Z "
     fill="#0B1C31"
     transform="translate(132,330)"
     id="path224" />
  <path
     d="M0 0 C0.99 1.32 1.98 2.64 3 4 C1.35 5.65 -0.3 7.3 -2 9 C-2.66 8.34 -3.32 7.68 -4 7 C-4 4 -4 4 -2 1.8125 C-1.34 1.214375 -0.68 0.61625 0 0 Z "
     fill="#172A40"
     transform="translate(237,392)"
     id="path226" />
  <path
     d="M0 0 C1.32 0.66 2.64 1.32 4 2 C3.67 3.32 3.34 4.64 3 6 C0.69 5.34 -1.62 4.68 -4 4 C-2.68 2.68 -1.36 1.36 0 0 Z "
     fill="#203346"
     transform="translate(107,358)"
     id="path228" />
  <path
     d="M0 0 C1.37562854 1.28965176 2.70766393 2.62689293 4 4 C4 4.66 4 5.32 4 6 C1.03 6 -1.94 6 -5 6 C-5.33 5.01 -5.66 4.02 -6 3 C-3.03 3.495 -3.03 3.495 0 4 C0 2.68 0 1.36 0 0 Z "
     fill="#283548"
     transform="translate(333,411)"
     id="path230" />
  <path
     d="M0 0 C2 2 2 2 2.1953125 3.9453125 C2.13020833 5.96354167 2.06510417 7.98177083 2 10 C1.01 10 0.02 10 -1 10 C-1.125 2.25 -1.125 2.25 0 0 Z "
     fill="#202D3D"
     transform="translate(153,343)"
     id="path232" />
  <path
     d="M0 0 C1.9375 0.75 1.9375 0.75 4 2 C4.75 4.125 4.75 4.125 5 6 C3.35 6.33 1.7 6.66 0 7 C-1.125 2.25 -1.125 2.25 0 0 Z "
     fill="#0C1E36"
     transform="translate(86,358)"
     id="path234" />
  <path
     d="M0 0 C2.31 0 4.62 0 7 0 C7 0.99 7 1.98 7 3 C4.36 3 1.72 3 -1 3 C-0.67 2.01 -0.34 1.02 0 0 Z "
     fill="#1F2D3D"
     transform="translate(303,414)"
     id="path236" />
  <path
     d="M0 0 C4.29 0 8.58 0 13 0 C13 0.33 13 0.66 13 1 C5.73846154 3.21538462 5.73846154 3.21538462 2 2.125 C1.34 1.75375 0.68 1.3825 0 1 C0 0.67 0 0.34 0 0 Z "
     fill="#DDDFDF"
     transform="translate(96,156)"
     id="path238" />
  <path
     d="M0 0 C1.65 0 3.3 0 5 0 C5 0.99 5 1.98 5 3 C3.68 3 2.36 3 1 3 C0.67 4.32 0.34 5.64 0 7 C0 4.69 0 2.38 0 0 Z "
     fill="#08192F"
     transform="translate(265,380)"
     id="path240" />
  <path
     d="M0 0 C-0.66 1.32 -1.32 2.64 -2 4 C-3.32 4 -4.64 4 -6 4 C-6.66 3.34 -7.32 2.68 -8 2 C-2.25 0 -2.25 0 0 0 Z "
     fill="#25354B"
     transform="translate(392,335)"
     id="path242" />
</svg>
